<svg xmlns="http://www.w3.org/2000/svg" width="200" height="200" viewBox="0 0 200 200" fill="none" stroke="#0B1D3A" stroke-width="2" stroke-linecap="round" stroke-linejoin="round">
  <circle cx="100" cy="70" r="28" fill="white" stroke="#0B1D3A" stroke-width="2"/>
  <path d="M85 62 Q100 52 115 62 Q118 70 115 78 Q100 88 85 78 Q82 70 85 62Z" fill="#FFF0ED" stroke="#F85A3E" stroke-width="1.5"/>
  <circle cx="92" cy="70" r="3" fill="#0B1D3A" stroke="none"/>
  <circle cx="108" cy="70" r="3" fill="#0B1D3A" stroke="none"/>
  <path d="M95 76 Q100 80 105 76" stroke="#0B1D3A" stroke-width="1.5" fill="none"/>
  <rect x="55" y="108" width="90" height="8" rx="4" fill="#0B1D3A" stroke="none"/>
  <rect x="65" y="124" width="70" height="8" rx="4" fill="#0B1D3A" stroke="none" opacity="0.5"/>
  <rect x="75" y="140" width="50" height="8" rx="4" fill="#0B1D3A" stroke="none" opacity="0.3"/>
  <circle cx="155" cy="55" r="12" fill="none" stroke="#F85A3E" stroke-width="2"/>
  <line x1="155" y1="47" x2="155" y2="63" stroke="#F85A3E" stroke-width="2"/>
  <line x1="147" y1="55" x2="163" y2="55" stroke="#F85A3E" stroke-width="2"/>
</svg>